<svg width="155" height="24" viewBox="0 0 155 24" fill="none" xmlns="http://www.w3.org/2000/svg">
<path d="M93.2129 22.3628V14.6666L102.172 2.48096H152.838V22.3628H93.2129Z" fill="#4EF09D"/>
<path d="M79.1219 6.17718V9.73836C79.1219 10.4472 78.9846 11.1392 78.71 11.7806C78.4354 12.4219 78.0407 13.0126 77.5258 13.519C77.028 14.0084 76.4273 14.4135 75.758 14.6835C75.1058 14.9536 74.3849 15.0886 73.6812 15.0886H70.0598C68.7211 15.0886 67.4339 14.5991 66.4384 13.7215C65.443 14.5991 64.1557 15.0886 62.817 15.0886H51.9356C50.4939 15.0886 49.1037 14.5316 48.091 13.519C47.5933 13.0295 47.1814 12.4388 46.9068 11.7806C46.6322 11.1392 46.4949 10.4303 46.4949 9.73836L51.5752 2.59912H57.3763V6.17718H50.1163V9.73836C50.1163 10.2109 50.3051 10.6666 50.6484 11.0042C50.9916 11.3417 51.455 11.5274 51.9356 11.5274H62.817C63.2976 11.5274 63.761 11.3417 64.1042 11.0042C64.4475 10.6666 64.6363 10.2109 64.6363 9.73836V6.17718H68.2577V9.73836C68.2577 10.2109 68.4465 10.6666 68.7897 11.0042C69.133 11.3417 69.5964 11.5274 70.077 11.5274H73.6984C74.179 11.5274 74.6424 11.3417 74.9856 11.0042C75.3289 10.6666 75.5177 10.2109 75.5177 9.73836V6.17718H79.1219ZM86.3819 4.38815V9.73836C86.3819 10.2109 86.1931 10.6666 85.8499 11.0042C85.5066 11.3417 85.0432 11.5274 84.5627 11.5274H79.1219L81.6621 15.0886H84.5627C87.5662 15.0886 90.0034 12.6919 90.0034 9.73836V4.38815H86.3819ZM28.3535 6.17718V9.73836C28.3535 10.2109 28.1647 10.6666 27.8214 11.0042C27.4782 11.3417 27.0148 11.5274 26.5342 11.5274H22.9128C21.9173 11.5274 21.0935 10.7341 21.0935 9.73836V6.17718H17.4721V13.3164C17.4721 14.2953 16.6654 15.1055 15.6528 15.1055H8.40994C7.92938 15.1055 7.46597 14.9198 7.12271 14.5822C6.77945 14.2447 6.59065 13.789 6.59065 13.3164V6.17718H12.0314V2.59912H8.04952L2.96924 9.73836V13.2995C2.96924 14.0084 3.10654 14.7004 3.38115 15.3417C4.22215 17.3333 6.21307 18.6498 8.40994 18.6498H15.6699C18.1243 18.6498 20.2697 17.0295 20.9218 14.7173C21.5569 14.9704 22.2262 15.0886 22.9128 15.0886H26.5342C27.255 15.0886 27.9587 14.9536 28.6109 14.6835C29.2631 14.4135 29.8638 14.0253 30.3787 13.519C30.8764 13.0295 31.2884 12.4388 31.563 11.7806C31.8376 11.1392 31.9749 10.4303 31.9749 9.73836V6.17718H28.3535ZM21.1106 16.8776V20.4388H28.3706V16.8776H21.1106ZM68.2577 16.8776V20.4388H75.5005V16.8776H68.2577ZM82.7605 16.8776V20.4388H88.2012V16.8776H82.7605ZM35.6135 16.8776V20.4388H39.2349V22.2278H42.8563V16.8776H35.6135ZM39.2349 4.38815V9.73836C39.2349 10.2109 39.0461 10.6666 38.7028 11.0042C38.3596 11.3417 37.8962 11.5274 37.4156 11.5274H31.9749L34.515 15.0886H37.4156C38.1364 15.0886 38.8401 14.9536 39.4923 14.6835C40.1445 14.4135 40.7452 14.0253 41.2601 13.519C41.7579 13.0295 42.1698 12.4388 42.4444 11.7806C42.719 11.1392 42.8563 10.4303 42.8563 9.73836V4.38815H39.2349Z" fill="#D8D8D8"/>
<path d="M105.965 16.4726C106.291 16.4726 106.583 16.3545 106.806 16.1351C107.046 15.9157 107.166 15.6287 107.166 15.3081L107.149 15.0211H104.352V13.1984H109.93C109.981 13.1815 110.033 13.1984 110.067 13.249C110.101 13.2827 110.118 13.3334 110.118 13.384V14.8186C110.118 14.9368 110.05 15.0043 109.912 15.0211H108.642C108.642 15.038 108.642 15.0549 108.659 15.1055C108.677 15.1562 108.677 15.2237 108.677 15.2912V15.5106C108.677 15.8988 108.608 16.2701 108.454 16.6076C108.299 16.9452 108.093 17.2321 107.818 17.4853C107.561 17.7384 107.235 17.941 106.892 18.076C106.548 18.211 106.154 18.2785 105.742 18.2785H103.322C102.893 18.2785 102.464 18.1941 102.086 18.0254C101.691 17.8566 101.365 17.6372 101.073 17.3503C100.782 17.0633 100.558 16.7258 100.387 16.3545C100.215 15.9832 100.129 15.5612 100.129 15.1224V11.46H101.691V14.9368C101.691 15.1562 101.726 15.3587 101.811 15.5443C101.897 15.73 102.017 15.8988 102.155 16.0338C102.292 16.1688 102.464 16.287 102.652 16.3714C102.841 16.4557 103.047 16.4895 103.27 16.4895H105.965V16.4726Z" fill="#333333"/>
<path d="M109.947 13.1982H112.058C112.195 13.1982 112.264 13.2658 112.264 13.4008V14.8354C112.264 14.9704 112.195 15.0379 112.058 15.0379H109.947C109.809 15.0379 109.741 14.9704 109.741 14.8354V13.4008C109.741 13.2658 109.809 13.1982 109.947 13.1982Z" fill="#333333"/>
<path d="M113.259 12.5739L113.551 11.1393C113.602 10.8862 113.688 10.6499 113.825 10.4305C113.963 10.2111 114.134 10.0254 114.323 9.87352C114.512 9.72162 114.735 9.60347 114.975 9.50221C115.216 9.41782 115.473 9.36719 115.73 9.36719H116.52C116.846 9.36719 117.155 9.4347 117.43 9.55284C117.721 9.67098 117.962 9.83976 118.168 10.0423C118.374 10.2448 118.545 10.498 118.665 10.768C118.786 11.055 118.854 11.3419 118.854 11.6625V13.2997C118.854 13.536 118.803 13.7554 118.717 13.9579C118.631 14.1604 118.511 14.3461 118.339 14.498C118.168 14.6499 117.996 14.768 117.79 14.8693C117.584 14.9537 117.361 15.0043 117.121 15.0043H115.473C115.181 15.0043 114.924 14.9537 114.666 14.8355C114.409 14.7174 114.169 14.5149 113.963 14.2111C113.74 14.5149 113.499 14.7174 113.242 14.8355C112.984 14.9537 112.693 15.0043 112.384 15.0043H112.04C111.903 15.0043 111.834 14.9368 111.834 14.8018V13.3672C111.834 13.2322 111.903 13.1647 112.04 13.1647H112.504C112.693 13.1647 112.864 13.114 113.002 12.9959C113.139 12.9115 113.225 12.7596 113.259 12.5739ZM115.284 13.1984H117.292V11.6457C117.292 11.4938 117.241 11.3756 117.138 11.2744C117.035 11.1731 116.898 11.1225 116.76 11.1225H115.61C115.473 11.1225 115.37 11.1562 115.267 11.2406C115.164 11.325 115.113 11.4263 115.078 11.5613L114.855 12.6752C114.821 12.8102 114.855 12.9284 114.941 13.0296C115.027 13.1478 115.147 13.1984 115.284 13.1984Z" fill="#333333"/>
<path d="M122.544 15.021C122.287 15.021 122.046 14.9704 121.823 14.8691C121.6 14.7678 121.394 14.6328 121.223 14.464C121.051 14.2953 120.914 14.0927 120.811 13.8733C120.708 13.637 120.656 13.4008 120.656 13.1476V11.3248H121.995V12.8607C121.995 12.9619 122.029 13.0295 122.098 13.097C122.167 13.1645 122.235 13.1813 122.321 13.1813H124.672C124.844 13.1813 124.999 13.1476 125.136 13.0632C125.273 12.9788 125.376 12.8776 125.462 12.7425C125.548 12.6075 125.582 12.4725 125.582 12.3206C125.582 12.1687 125.548 12.0168 125.462 11.8649L123.694 8.77629L125.016 7.91553L126.904 11.2235C127.144 11.6455 127.264 12.0843 127.247 12.5231C127.23 12.9788 127.11 13.3839 126.886 13.7552C126.663 14.1265 126.372 14.4303 125.977 14.6666C125.582 14.9029 125.153 15.021 124.655 15.021H122.544Z" fill="#333333"/>
<path d="M132.173 14.8187C132.173 14.9537 132.104 15.0212 131.967 15.0212H131.555C131.212 15.0212 130.886 14.9537 130.594 14.8356C130.285 14.7174 130.028 14.5318 129.804 14.3124C129.581 14.0929 129.393 13.8229 129.255 13.536C129.118 13.2322 129.049 12.9115 129.049 12.5908V6.26172H130.611V12.5233C130.611 12.709 130.68 12.8609 130.817 12.9959C130.954 13.1309 131.109 13.1984 131.298 13.1984H131.967C132.019 13.1984 132.07 13.2153 132.104 13.2659C132.139 13.2997 132.156 13.3503 132.156 13.4178V14.8187H132.173Z" fill="#333333"/>
<path d="M131.984 13.1982H134.095C134.233 13.1982 134.301 13.2658 134.301 13.4008V14.8354C134.301 14.9704 134.233 15.0379 134.095 15.0379H131.984C131.847 15.0379 131.778 14.9704 131.778 14.8354V13.4008C131.778 13.2658 131.847 13.1982 131.984 13.1982Z" fill="#333333"/>
<path d="M135.794 11.0552L134.662 9.99193L137.991 6.12695L139.124 7.15649L137.236 9.36746H142.66C142.986 9.36746 143.278 9.43497 143.569 9.55311C143.844 9.67126 144.101 9.84003 144.307 10.0426C144.513 10.2451 144.685 10.4983 144.805 10.7683C144.925 11.0552 144.994 11.3421 144.994 11.6628V12.6924C144.994 13.0299 144.925 13.3337 144.805 13.6206C144.685 13.9075 144.496 14.1438 144.273 14.3464C144.05 14.5489 143.792 14.7177 143.501 14.8358C143.209 14.954 142.917 15.0046 142.591 15.0046H134.061C133.924 14.9877 133.855 14.9202 133.855 14.8021V13.3675C133.855 13.2324 133.924 13.1649 134.061 13.1649H142.866C143.003 13.1649 143.14 13.1143 143.243 13.013C143.346 12.9118 143.415 12.7767 143.415 12.608V11.6459C143.415 11.4772 143.346 11.3421 143.226 11.224C143.106 11.1059 142.951 11.0552 142.78 11.0552H135.794Z" fill="#333333"/>
<path d="M144.959 8.18581V7.4432C144.959 7.02126 145.097 6.6837 145.371 6.44742C145.646 6.21113 145.955 6.10986 146.298 6.10986H149.25V7.4432H146.47C146.367 7.4432 146.298 7.47695 146.247 7.52758C146.195 7.59509 146.161 7.66261 146.161 7.73012V8.18581H144.959ZM148.461 15.0213H146.899V8.54024H148.461V15.0213Z" fill="#333333"/>
</svg>
