<svg xmlns="http://www.w3.org/2000/svg" xmlns:xlink="http://www.w3.org/1999/xlink" style="margin:auto;background:#f1f2f3;display:block;z-index:1;position:relative" width="2159" height="1397" preserveAspectRatio="xMidYMid" viewBox="0 0 2159 1397">
<g transform="translate(1079.5,698.5) scale(1,1) translate(-1079.5,-698.5)"><defs>
<linearGradient id="lg-0.9624679941510987" x1="0" x2="0" y1="0" y2="1">
  <stop stop-color="#181818" offset="0.3"></stop>
  <stop stop-color="#7150f3" offset="0.6499999999999999"></stop>
  <stop stop-color="#7150f3" offset="1"></stop>
</linearGradient>
<linearGradient id="fg-lg-0.9624679941510987" x1="0" x2="0" y1="0" y2="1">
  <stop stop-color="#181818" stop-opacity="1" offset="0.3"></stop>
  <stop stop-color="#7150f3" stop-opacity="0.66" offset="0.6499999999999999"></stop>
  <stop stop-color="#7150f3" stop-opacity="0" offset="1"></stop>
</linearGradient>
<style type="text/css">
  path { fill: none; stroke: #c771ef; stroke-width: 2px }
</style>
</defs>
<rect x="0" y="0" width="2159" height="1397" fill="url(#lg-0.9624679941510987)"></rect><path d="M0 419.09999999999997 L-15113 1397"></path><path d="M16.607692307692307 419.09999999999997 L-14863.884615384615 1397"></path><path d="M33.215384615384615 419.09999999999997 L-14614.76923076923 1397"></path><path d="M49.823076923076925 419.09999999999997 L-14365.653846153846 1397"></path><path d="M66.43076923076923 419.09999999999997 L-14116.538461538461 1397"></path><path d="M83.03846153846153 419.09999999999997 L-13867.423076923076 1397"></path><path d="M99.64615384615385 419.09999999999997 L-13618.307692307691 1397"></path><path d="M116.25384615384615 419.09999999999997 L-13369.192307692309 1397"></path><path d="M132.86153846153846 419.09999999999997 L-13120.076923076924 1397"></path><path d="M149.46923076923076 419.09999999999997 L-12870.961538461539 1397"></path><path d="M166.07692307692307 419.09999999999997 L-12621.846153846154 1397"></path><path d="M182.6846153846154 419.09999999999997 L-12372.73076923077 1397"></path><path d="M199.2923076923077 419.09999999999997 L-12123.615384615385 1397"></path><path d="M215.9 419.09999999999997 L-11874.5 1397"></path><path d="M232.5076923076923 419.09999999999997 L-11625.384615384615 1397"></path><path d="M249.1153846153846 419.09999999999997 L-11376.26923076923 1397"></path><path d="M265.7230769230769 419.09999999999997 L-11127.153846153846 1397"></path><path d="M282.33076923076925 419.09999999999997 L-10878.038461538461 1397"></path><path d="M298.9384615384615 419.09999999999997 L-10628.923076923078 1397"></path><path d="M315.54615384615386 419.09999999999997 L-10379.807692307691 1397"></path><path d="M332.15384615384613 419.09999999999997 L-10130.692307692309 1397"></path><path d="M348.76153846153846 419.09999999999997 L-9881.576923076922 1397"></path><path d="M365.3692307692308 419.09999999999997 L-9632.461538461539 1397"></path><path d="M381.9769230769231 419.09999999999997 L-9383.346153846154 1397"></path><path d="M398.5846153846154 419.09999999999997 L-9134.23076923077 1397"></path><path d="M415.1923076923077 419.09999999999997 L-8885.115384615385 1397"></path><path d="M431.8 419.09999999999997 L-8636 1397"></path><path d="M448.4076923076923 419.09999999999997 L-8386.884615384615 1397"></path><path d="M465.0153846153846 419.09999999999997 L-8137.7692307692305 1397"></path><path d="M481.62307692307695 419.09999999999997 L-7888.653846153846 1397"></path><path d="M498.2307692307692 419.09999999999997 L-7639.538461538462 1397"></path><path d="M514.8384615384615 419.09999999999997 L-7390.423076923077 1397"></path><path d="M531.4461538461538 419.09999999999997 L-7141.307692307692 1397"></path><path d="M548.0538461538462 419.09999999999997 L-6892.1923076923085 1397"></path><path d="M564.6615384615385 419.09999999999997 L-6643.076923076924 1397"></path><path d="M581.2692307692307 419.09999999999997 L-6393.961538461539 1397"></path><path d="M597.876923076923 419.09999999999997 L-6144.846153846154 1397"></path><path d="M614.4846153846154 419.09999999999997 L-5895.7307692307695 1397"></path><path d="M631.0923076923077 419.09999999999997 L-5646.615384615385 1397"></path><path d="M647.7 419.09999999999997 L-5397.5 1397"></path><path d="M664.3076923076923 419.09999999999997 L-5148.384615384615 1397"></path><path d="M680.9153846153846 419.09999999999997 L-4899.2692307692305 1397"></path><path d="M697.5230769230769 419.09999999999997 L-4650.153846153846 1397"></path><path d="M714.1307692307693 419.09999999999997 L-4401.038461538461 1397"></path><path d="M730.7384615384616 419.09999999999997 L-4151.923076923076 1397"></path><path d="M747.3461538461538 419.09999999999997 L-3902.8076923076915 1397"></path><path d="M763.9538461538461 419.09999999999997 L-3653.6923076923085 1397"></path><path d="M780.5615384615385 419.09999999999997 L-3404.576923076924 1397"></path><path d="M797.1692307692308 419.09999999999997 L-3155.461538461539 1397"></path><path d="M813.776923076923 419.09999999999997 L-2906.3461538461543 1397"></path><path d="M830.3846153846154 419.09999999999997 L-2657.2307692307695 1397"></path><path d="M846.9923076923077 419.09999999999997 L-2408.1153846153848 1397"></path><path d="M863.6 419.09999999999997 L-2159 1397"></path><path d="M880.2076923076924 419.09999999999997 L-1909.8846153846152 1397"></path><path d="M896.8153846153846 419.09999999999997 L-1660.7692307692305 1397"></path><path d="M913.4230769230769 419.09999999999997 L-1411.6538461538457 1397"></path><path d="M930.0307692307692 419.09999999999997 L-1162.538461538461 1397"></path><path d="M946.6384615384616 419.09999999999997 L-913.4230769230762 1397"></path><path d="M963.2461538461539 419.09999999999997 L-664.3076923076915 1397"></path><path d="M979.8538461538461 419.09999999999997 L-415.19230769230853 1397"></path><path d="M996.4615384615385 419.09999999999997 L-166.07692307692378 1397"></path><path d="M1013.0692307692308 419.09999999999997 L83.03846153846098 1397"></path><path d="M1029.676923076923 419.09999999999997 L332.15384615384573 1397"></path><path d="M1046.2846153846153 419.09999999999997 L581.2692307692305 1397"></path><path d="M1062.8923076923077 419.09999999999997 L830.3846153846152 1397"></path><path d="M1079.5 419.09999999999997 L1079.5 1397"></path><path d="M1096.1076923076923 419.09999999999997 L1328.615384615383 1397"></path><path d="M1112.7153846153847 419.09999999999997 L1577.7307692307695 1397"></path><path d="M1129.323076923077 419.09999999999997 L1826.8461538461524 1397"></path><path d="M1145.9307692307693 419.09999999999997 L2075.961538461539 1397"></path><path d="M1162.5384615384614 419.09999999999997 L2325.076923076922 1397"></path><path d="M1179.1461538461538 419.09999999999997 L2574.1923076923085 1397"></path><path d="M1195.753846153846 419.09999999999997 L2823.3076923076915 1397"></path><path d="M1212.3615384615384 419.09999999999997 L3072.423076923078 1397"></path><path d="M1228.9692307692308 419.09999999999997 L3321.538461538461 1397"></path><path d="M1245.576923076923 419.09999999999997 L3570.6538461538476 1397"></path><path d="M1262.1846153846154 419.09999999999997 L3819.7692307692305 1397"></path><path d="M1278.7923076923078 419.09999999999997 L4068.884615384617 1397"></path><path d="M1295.4 419.09999999999997 L4318 1397"></path><path d="M1312.0076923076922 419.09999999999997 L4567.115384615383 1397"></path><path d="M1328.6153846153845 419.09999999999997 L4816.2307692307695 1397"></path><path d="M1345.2230769230769 419.09999999999997 L5065.346153846152 1397"></path><path d="M1361.8307692307692 419.09999999999997 L5314.461538461539 1397"></path><path d="M1378.4384615384615 419.09999999999997 L5563.576923076922 1397"></path><path d="M1395.0461538461539 419.09999999999997 L5812.6923076923085 1397"></path><path d="M1411.6538461538462 419.09999999999997 L6061.8076923076915 1397"></path><path d="M1428.2615384615385 419.09999999999997 L6310.923076923078 1397"></path><path d="M1444.8692307692309 419.09999999999997 L6560.038461538461 1397"></path><path d="M1461.4769230769232 419.09999999999997 L6809.153846153848 1397"></path><path d="M1478.0846153846153 419.09999999999997 L7058.2692307692305 1397"></path><path d="M1494.6923076923076 419.09999999999997 L7307.384615384617 1397"></path><path d="M1511.3 419.09999999999997 L7556.5 1397"></path><path d="M1527.9076923076923 419.09999999999997 L7805.615384615383 1397"></path><path d="M1544.5153846153846 419.09999999999997 L8054.7307692307695 1397"></path><path d="M1561.123076923077 419.09999999999997 L8303.846153846152 1397"></path><path d="M1577.7307692307693 419.09999999999997 L8552.961538461539 1397"></path><path d="M1594.3384615384616 419.09999999999997 L8802.076923076922 1397"></path><path d="M1610.946153846154 419.09999999999997 L9051.192307692309 1397"></path><path d="M1627.553846153846 419.09999999999997 L9300.307692307691 1397"></path><path d="M1644.1615384615384 419.09999999999997 L9549.423076923078 1397"></path><path d="M1660.7692307692307 419.09999999999997 L9798.538461538461 1397"></path><path d="M1677.376923076923 419.09999999999997 L10047.653846153848 1397"></path><path d="M1693.9846153846154 419.09999999999997 L10296.76923076923 1397"></path><path d="M1710.5923076923077 419.09999999999997 L10545.884615384617 1397"></path><path d="M1727.2 419.09999999999997 L10795 1397"></path><path d="M1743.8076923076924 419.09999999999997 L11044.115384615383 1397"></path><path d="M1760.4153846153847 419.09999999999997 L11293.23076923077 1397"></path><path d="M1777.0230769230768 419.09999999999997 L11542.346153846152 1397"></path><path d="M1793.6307692307691 419.09999999999997 L11791.461538461539 1397"></path><path d="M1810.2384615384615 419.09999999999997 L12040.576923076922 1397"></path><path d="M1826.8461538461538 419.09999999999997 L12289.692307692309 1397"></path><path d="M1843.4538461538461 419.09999999999997 L12538.807692307691 1397"></path><path d="M1860.0615384615385 419.09999999999997 L12787.923076923078 1397"></path><path d="M1876.6692307692308 419.09999999999997 L13037.038461538461 1397"></path><path d="M1893.2769230769231 419.09999999999997 L13286.153846153848 1397"></path><path d="M1909.8846153846155 419.09999999999997 L13535.26923076923 1397"></path><path d="M1926.4923076923078 419.09999999999997 L13784.384615384617 1397"></path><path d="M1943.1 419.09999999999997 L14033.5 1397"></path><path d="M1959.7076923076922 419.09999999999997 L14282.615384615383 1397"></path><path d="M1976.3153846153846 419.09999999999997 L14531.73076923077 1397"></path><path d="M1992.923076923077 419.09999999999997 L14780.846153846152 1397"></path><path d="M2009.5307692307692 419.09999999999997 L15029.961538461539 1397"></path><path d="M2026.1384615384616 419.09999999999997 L15279.076923076922 1397"></path><path d="M2042.746153846154 419.09999999999997 L15528.192307692309 1397"></path><path d="M2059.353846153846 419.09999999999997 L15777.307692307691 1397"></path><path d="M2075.9615384615386 419.09999999999997 L16026.423076923078 1397"></path><path d="M2092.5692307692307 419.09999999999997 L16275.538461538461 1397"></path><path d="M2109.1769230769232 419.09999999999997 L16524.653846153848 1397"></path><path d="M2125.7846153846153 419.09999999999997 L16773.76923076923 1397"></path><path d="M2142.392307692308 419.09999999999997 L17022.884615384617 1397"></path><path d="M2159 419.09999999999997 L17272 1397"></path><g>
<path d="M0 419.09999999999997 L2159 419.09999999999997"></path>
<animateTransform attributeName="transform" type="translate" repeatCount="indefinite" calcMode="linear" keyTimes="0;1" values="0 0;0 7.406579881656804" begin="0s" dur="0.8333333333333334s"></animateTransform>

</g><g>
<path d="M0 426.50657988165676 L2159 426.50657988165676"></path>
<animateTransform attributeName="transform" type="translate" repeatCount="indefinite" calcMode="linear" keyTimes="0;1" values="0 0;0 14.81315976331361" begin="0s" dur="0.8333333333333334s"></animateTransform>

</g><g>
<path d="M0 441.31973964497035 L2159 441.31973964497035"></path>
<animateTransform attributeName="transform" type="translate" repeatCount="indefinite" calcMode="linear" keyTimes="0;1" values="0 0;0 22.219739644970414" begin="0s" dur="0.8333333333333334s"></animateTransform>

</g><g>
<path d="M0 463.53947928994074 L2159 463.53947928994074"></path>
<animateTransform attributeName="transform" type="translate" repeatCount="indefinite" calcMode="linear" keyTimes="0;1" values="0 0;0 29.62631952662722" begin="0s" dur="0.8333333333333334s"></animateTransform>

</g><g>
<path d="M0 493.165798816568 L2159 493.165798816568"></path>
<animateTransform attributeName="transform" type="translate" repeatCount="indefinite" calcMode="linear" keyTimes="0;1" values="0 0;0 37.032899408284024" begin="0s" dur="0.8333333333333334s"></animateTransform>

</g><g>
<path d="M0 530.198698224852 L2159 530.198698224852"></path>
<animateTransform attributeName="transform" type="translate" repeatCount="indefinite" calcMode="linear" keyTimes="0;1" values="0 0;0 44.43947928994083" begin="0s" dur="0.8333333333333334s"></animateTransform>

</g><g>
<path d="M0 574.6381775147928 L2159 574.6381775147928"></path>
<animateTransform attributeName="transform" type="translate" repeatCount="indefinite" calcMode="linear" keyTimes="0;1" values="0 0;0 51.84605917159763" begin="0s" dur="0.8333333333333334s"></animateTransform>

</g><g>
<path d="M0 626.4842366863904 L2159 626.4842366863904"></path>
<animateTransform attributeName="transform" type="translate" repeatCount="indefinite" calcMode="linear" keyTimes="0;1" values="0 0;0 59.252639053254434" begin="0s" dur="0.8333333333333334s"></animateTransform>

</g><g>
<path d="M0 685.7368757396449 L2159 685.7368757396449"></path>
<animateTransform attributeName="transform" type="translate" repeatCount="indefinite" calcMode="linear" keyTimes="0;1" values="0 0;0 66.65921893491124" begin="0s" dur="0.8333333333333334s"></animateTransform>

</g><g>
<path d="M0 752.3960946745561 L2159 752.3960946745561"></path>
<animateTransform attributeName="transform" type="translate" repeatCount="indefinite" calcMode="linear" keyTimes="0;1" values="0 0;0 74.06579881656805" begin="0s" dur="0.8333333333333334s"></animateTransform>

</g><g>
<path d="M0 826.4618934911242 L2159 826.4618934911242"></path>
<animateTransform attributeName="transform" type="translate" repeatCount="indefinite" calcMode="linear" keyTimes="0;1" values="0 0;0 81.47237869822486" begin="0s" dur="0.8333333333333334s"></animateTransform>

</g><g>
<path d="M0 907.934272189349 L2159 907.934272189349"></path>
<animateTransform attributeName="transform" type="translate" repeatCount="indefinite" calcMode="linear" keyTimes="0;1" values="0 0;0 88.87895857988167" begin="0s" dur="0.8333333333333334s"></animateTransform>

</g><g>
<path d="M0 996.8132307692307 L2159 996.8132307692307"></path>
<animateTransform attributeName="transform" type="translate" repeatCount="indefinite" calcMode="linear" keyTimes="0;1" values="0 0;0 96.28553846153848" begin="0s" dur="0.8333333333333334s"></animateTransform>

</g><g>
<path d="M0 1093.0987692307692 L2159 1093.0987692307692"></path>
<animateTransform attributeName="transform" type="translate" repeatCount="indefinite" calcMode="linear" keyTimes="0;1" values="0 0;0 103.69211834319529" begin="0s" dur="0.8333333333333334s"></animateTransform>

</g><g>
<path d="M0 1196.7908875739645 L2159 1196.7908875739645"></path>
<animateTransform attributeName="transform" type="translate" repeatCount="indefinite" calcMode="linear" keyTimes="0;1" values="0 0;0 111.0986982248521" begin="0s" dur="0.8333333333333334s"></animateTransform>

</g><g>
<path d="M0 1307.8895857988166 L2159 1307.8895857988166"></path>
<animateTransform attributeName="transform" type="translate" repeatCount="indefinite" calcMode="linear" keyTimes="0;1" values="0 0;0 118.50527810650891" begin="0s" dur="0.8333333333333334s"></animateTransform>

</g><g>
<path d="M0 1426.3948639053256 L2159 1426.3948639053256"></path>
<animateTransform attributeName="transform" type="translate" repeatCount="indefinite" calcMode="linear" keyTimes="0;1" values="0 0;0 125.91185798816572" begin="0s" dur="0.8333333333333334s"></animateTransform>

</g><rect x="0" y="0" width="2159" height="1397" fill="url(#fg-lg-0.9624679941510987)"></rect></g>
</svg>