<svg width="1221" height="241" viewBox="0 0 1221 241" fill="none" xmlns="http://www.w3.org/2000/svg">
<path fill-rule="evenodd" clip-rule="evenodd" d="M267.277 19.0058C263.453 65.7161 219.751 62.4189 219.751 62.4189H156.382C156.382 62.4189 103.939 58.0226 71.162 73.9591C76.0786 63.5179 80.9951 53.6264 84.8191 45.9329C97.9299 17.9067 125.244 19.0058 125.244 19.0058H267.277ZM131.799 64.0675C127.975 66.2656 124.698 69.5628 123.059 73.4095L99.0224 132.21H43.3016C43.3016 132.21 56.4124 104.733 68.9769 78.3553C74.986 75.6077 97.9299 64.0675 131.799 64.0675Z" fill="#FF5230"/>
<path fill-rule="evenodd" clip-rule="evenodd" d="M0 202C3.82398 154.74 48.6191 157.488 48.6191 157.488H113.08C113.08 157.488 166.616 162.434 199.393 145.948C194.477 156.938 189.56 166.83 185.736 174.523C172.625 202.55 144.219 201.451 144.219 201.451H0V202ZM138.209 155.839C142.58 153.641 145.857 150.344 147.496 145.948L172.079 86.5983H228.346C228.346 86.5983 214.689 114.624 202.124 141.002C196.115 144.299 172.625 156.389 138.209 155.839Z" fill="#233A7A"/>
<g clip-path="url(#clip0_415_975)">
<path fill-rule="evenodd" clip-rule="evenodd" d="M1163.26 114.516L1162.1 112.167C1158.6 105.12 1155.1 98.0727 1151.02 91.0255L1141.69 74.5822C1138.19 68.7096 1132.35 65.186 1125.36 65.186H1103.78L1138.77 119.801C1139.35 120.389 1139.35 120.976 1139.94 121.563L1153.93 143.879C1155.68 146.815 1156.85 150.926 1156.85 154.45V160.322L1159.76 155.037C1161.51 152.101 1162.68 149.164 1163.85 146.228C1168.51 135.657 1168.51 123.912 1163.26 114.516ZM1137.6 123.912L1138.19 130.372C1138.77 133.896 1137.6 137.419 1135.85 140.355L1099.7 199.082H1122.44C1129.44 199.082 1135.27 195.558 1138.77 189.685L1149.27 170.893C1151.02 167.957 1152.77 165.02 1154.52 162.084V161.497C1155.1 156.212 1153.93 150.926 1151.6 146.228L1137.6 123.912Z" fill="#233A7A"/>
<path fill-rule="evenodd" clip-rule="evenodd" d="M1186.01 136.832L1185.43 130.372C1184.84 126.848 1186.01 123.325 1187.76 120.389L1221 68.7096H1200.59C1194.17 68.7096 1188.34 72.2332 1184.84 77.5185L1176.09 93.3746C1174.93 95.7236 1173.76 98.0726 1172.6 100.422C1170.85 106.294 1171.43 112.754 1174.93 118.627L1186.01 136.832ZM1183.09 140.943L1184.26 140.355L1172.6 121.563C1170.26 118.04 1169.1 113.929 1169.68 109.818L1170.26 102.771L1167.35 108.643C1166.18 110.992 1166.18 110.992 1165.01 112.754L1163.85 114.516L1165.01 116.865C1170.26 125.674 1168.51 139.768 1163.85 147.99C1163.26 149.164 1162.68 150.339 1162.1 151.513L1162.68 152.688L1163.26 153.275C1166.18 158.561 1169.1 163.846 1172.01 169.131L1181.93 186.749C1184.84 192.034 1191.26 195.558 1197.67 195.558H1219.25L1185.43 139.768L1183.09 140.943Z" fill="#FF5230"/>
<path fill-rule="evenodd" clip-rule="evenodd" d="M384.115 96.3108C363.703 87.5019 357.288 81.042 357.288 70.4713C357.288 62.2496 363.12 52.8535 380.616 52.8535C384.698 52.8535 388.78 53.4407 392.28 54.028C403.36 56.377 414.441 49.3299 417.357 38.7592L418.523 34.6484L416.191 32.8866C410.942 29.9503 398.695 25.2522 381.199 25.2522C348.54 25.2522 326.379 44.6318 326.379 72.8203C326.379 93.9617 340.375 110.405 368.369 121.563C386.448 129.197 393.446 136.832 393.446 147.99C393.446 160.91 383.532 168.544 367.202 168.544C361.37 168.544 356.122 167.957 350.873 166.195C339.209 163.259 327.545 170.306 324.046 182.051L322.879 184.987L324.629 186.162C333.377 192.034 350.29 196.145 364.869 196.145C400.444 196.145 423.772 176.178 423.772 145.641C423.772 123.912 411.525 108.056 384.115 96.3108ZM527.581 163.846V120.389C527.581 87.5019 511.835 69.884 480.925 69.884C466.345 69.884 451.766 73.4076 442.434 79.8675L440.102 81.042L440.685 83.391C443.601 92.7872 453.515 98.6598 463.429 95.7235C468.095 94.549 472.177 93.9617 476.843 93.9617C493.172 93.9617 496.088 102.771 496.672 112.754C455.848 113.929 432.52 130.372 432.52 159.148C432.52 177.353 445.35 196.145 469.845 196.145C482.092 196.145 493.172 191.447 500.754 183.225C503.67 189.685 510.085 193.796 517.083 193.796H529.914L529.331 189.685C527.581 183.225 527.581 173.242 527.581 163.846ZM497.255 136.832V152.101C497.255 163.259 488.507 172.067 476.843 172.067C468.678 172.067 463.429 166.195 463.429 157.386C463.429 148.577 466.929 137.419 497.255 136.832ZM596.981 69.884C586.484 69.884 575.986 75.7567 569.571 85.1528L568.988 72.2331H565.489C552.658 72.2331 541.578 82.8038 541.578 96.3108C541.578 96.3108 541.578 96.3108 541.578 96.8981C541.578 101.596 541.578 106.294 541.578 110.992V194.383H548.576C561.406 194.383 572.487 183.813 572.487 170.306V129.785C572.487 110.992 581.235 99.8344 595.232 99.8344C595.815 99.8344 596.398 99.8344 596.981 99.8344C599.314 99.8344 601.647 99.2471 603.396 97.4853C605.146 95.7235 605.729 93.9617 605.729 91.6127V71.0586L603.979 70.4713C601.647 69.884 599.314 69.884 596.981 69.884ZM746.279 69.884C731.699 69.884 720.035 75.7566 711.287 88.0891C704.872 76.9312 693.792 69.884 680.378 69.884C665.215 69.884 655.301 76.9312 648.886 83.9783L648.302 72.2331H645.386C632.556 72.2331 622.059 82.8038 622.059 95.7235V96.3108C622.059 99.8344 622.059 103.945 622.059 108.056V194.383H629.057C641.887 194.383 652.385 183.813 652.385 170.893V120.976C652.385 105.707 662.299 96.3108 672.213 96.3108C686.793 96.3108 688.543 112.167 688.543 121.563V194.383H695.541C708.371 194.383 718.869 183.813 718.869 170.893V119.801C718.869 105.12 728.2 96.3108 737.531 96.3108C749.195 96.3108 755.027 105.707 755.027 125.087V194.383H762.025C774.856 194.383 785.353 183.813 785.353 170.893V121.563C785.353 83.3911 765.525 69.884 746.279 69.884ZM892.078 163.846V120.389C892.078 87.5019 876.332 69.884 845.422 69.884C830.842 69.884 816.263 73.4076 806.348 79.8675L804.015 81.042L804.599 83.391C807.515 92.7872 817.429 98.6598 827.343 95.7235C832.009 94.549 836.091 93.9617 840.757 93.9617C857.086 93.9617 860.002 102.771 860.585 112.754C819.762 113.929 796.434 130.372 796.434 159.148C796.434 177.353 809.264 196.145 833.758 196.145C846.006 196.145 857.086 191.447 864.668 183.225C867.584 189.685 873.999 193.796 880.997 193.796H893.827L893.244 189.685C892.661 183.225 892.078 173.242 892.078 163.846ZM861.752 136.832V152.101C861.752 163.259 853.004 172.067 841.34 172.067C833.175 172.067 827.926 166.195 827.926 157.386C827.926 148.577 832.009 137.419 861.752 136.832ZM971.976 86.9146L956.813 139.768C955.646 143.292 954.48 147.403 953.897 150.926C952.73 146.815 951.564 143.292 950.397 139.181L933.485 85.7401C930.569 77.5184 922.987 71.6458 914.239 71.6458H894.994L935.818 182.638C936.401 183.813 936.984 184.987 936.984 186.162C936.984 188.511 928.819 210.239 905.491 218.461L902.575 219.636L903.742 222.572C906.658 231.968 914.823 237.841 924.737 237.841C929.402 237.841 934.068 236.079 937.567 233.143C939.317 231.968 940.483 230.794 942.233 229.032C956.813 214.938 966.727 192.034 979.557 155.037L1008.72 70.4713H991.221C982.473 72.2331 974.892 78.1057 971.976 86.9146ZM1061.79 69.884C1029.71 69.884 1006.97 96.8981 1006.97 135.07C1006.97 173.242 1029.13 196.732 1064.7 196.732C1078.7 196.732 1092.7 194.383 1102.61 189.685L1104.94 188.511L1104.36 185.574C1102.03 175.004 1092.11 168.544 1081.62 170.306C1076.95 170.893 1072.87 171.48 1068.2 171.48C1057.12 171.48 1039.04 167.369 1037.29 142.704H1109.03L1109.61 139.768C1110.19 136.245 1110.19 132.721 1110.19 129.197C1110.19 100.422 1097.36 69.884 1061.79 69.884ZM1037.88 118.039C1039.63 110.405 1044.29 93.9617 1060.04 93.9617C1065.29 93.9617 1069.95 95.7235 1073.45 99.2471C1078.7 104.532 1080.45 112.754 1080.45 118.039H1037.88Z" fill="#233A7A"/>
</g>
<defs>
<clipPath id="clip0_415_975">
<rect width="898" height="241" fill="white" transform="translate(323)"/>
</clipPath>
</defs>
</svg>
