<svg width="141" height="50" viewBox="0 0 141 50" fill="none" xmlns="http://www.w3.org/2000/svg">
<path d="M17.7959 18.5793C17.7959 20.0837 18.8015 21.0766 20.3077 21.0766H22.4028C23.909 21.0766 24.9146 20.0782 24.9146 18.5793V10.0452H28.6837V18.7872C28.6837 20.1548 29.6039 21.0766 30.9864 21.0766H31.3991C32.7747 21.0766 33.7018 20.1616 33.7018 18.7872V10.0452H37.4709V17.7464C37.4709 19.2029 38.0995 21.0766 40.1932 21.0766H78.2968V10.0452H82.0659V23.7832H40.1987C37.4764 23.7832 35.9688 23.4494 35.1737 22.1174C34.3359 23.284 33.08 23.7832 30.9864 23.7832C28.4732 23.7832 27.0921 23.3729 26.2544 22.1174C25.2915 23.325 23.8678 23.7832 21.3546 23.7832C19.0518 23.7832 17.7547 23.5329 17.1673 22.5345H17.7959V28.7791H7.95638C2.72228 28.7791 0 27.1134 0 21.7016V17.1214C0 13.4588 0.83773 11.6262 4.43901 9.42019L12.98 4.21632L14.4436 6.75602L6.5299 11.5428C4.31245 12.8762 3.7691 14.1249 3.7691 17.1214V21.7016C3.7691 25.2397 5.14468 26.0781 7.95638 26.0781H14.031V10.0452H17.8001L17.7959 18.5793ZM74.5346 29.8199H78.3023V26.6976H74.5346V29.8199ZM95.8892 21.6141C95.8892 23.1964 95.4284 24.1538 93.3774 25.0332L87.0965 27.7397L88.5202 30.4873L94.6402 27.7384C98.9526 25.8237 99.6652 23.8242 99.6652 21.4937V10.0452H95.8961L95.8892 21.6141ZM87.0965 23.7791L90.8642 22.0298V4.21632H87.0965V23.7791ZM65.3223 12.7504C66.5782 12.7504 67.416 13.5833 67.416 14.8319V18.7872H71.1837V14.2083C71.1837 11.7096 69.5096 10.0452 66.9964 10.0452H45.3062L57.7841 5.04921L56.7373 2.13477L42.2937 8.42591V12.7504H65.3223Z" fill="#113355"/>
<path d="M109.395 34.3704V25.5714L116.539 21.374V4.18524L123.682 0V25.9947L109.395 34.3704ZM125.839 42.0011L132.981 37.8036V20.6901L140.124 16.5031V7.70414L125.839 16.0904V42.0011Z" fill="#0052FF"/>
<rect y="36" width="96" height="14" rx="7" fill="white" fill-opacity="0.2"/>
<path d="M14.932 43.5L14.372 41.948C14.3187 41.8253 14.2627 41.6893 14.204 41.54C14.1507 41.3853 14.1027 41.2307 14.06 41.076C14.0173 41.236 13.9693 41.3907 13.916 41.54C13.8627 41.6893 13.8093 41.8253 13.756 41.948L13.196 43.5H14.932ZM16.668 45.5H15.9C15.8093 45.5 15.7293 45.4573 15.66 45.372C15.5907 45.2867 15.5427 45.2013 15.516 45.116L15.172 44.172H12.964L12.628 45.116C12.5907 45.196 12.5373 45.2813 12.468 45.372C12.3987 45.4573 12.3187 45.5 12.228 45.5H11.46L13.564 40.188H14.564L16.668 45.5ZM26.881 44.276C26.8917 44.276 26.9023 44.276 26.913 44.276C26.929 44.2707 26.9423 44.2707 26.953 44.276C26.969 44.2867 26.9823 44.2947 26.993 44.3C27.009 44.3053 27.0223 44.316 27.033 44.332L27.425 44.732C27.201 45.0093 26.9317 45.2173 26.617 45.356C26.3023 45.4893 25.9237 45.556 25.481 45.556C25.0863 45.556 24.729 45.4893 24.409 45.356C24.0943 45.2227 23.825 45.0387 23.601 44.804C23.377 44.564 23.2037 44.2787 23.081 43.948C22.9637 43.6173 22.905 43.2547 22.905 42.86C22.905 42.4707 22.9663 42.108 23.089 41.772C23.217 41.436 23.3957 41.148 23.625 40.908C23.8543 40.6627 24.1317 40.4707 24.457 40.332C24.7823 40.1933 25.1423 40.124 25.537 40.124C25.9263 40.124 26.2703 40.188 26.569 40.316C26.8677 40.4387 27.1263 40.6067 27.345 40.82C27.2597 40.9373 27.1903 41.0333 27.137 41.108C27.0837 41.1773 27.0383 41.2333 27.001 41.276C26.969 41.3133 26.9397 41.34 26.913 41.356C26.8863 41.3667 26.857 41.372 26.825 41.372C26.777 41.372 26.721 41.356 26.657 41.324C26.5557 41.2547 26.4623 41.196 26.377 41.148C26.2917 41.1 26.2037 41.06 26.113 41.028C26.0277 40.996 25.937 40.9747 25.841 40.964C25.7503 40.948 25.649 40.94 25.537 40.94C25.281 40.94 25.0517 40.988 24.849 41.084C24.6517 41.18 24.481 41.3133 24.337 41.484C24.1983 41.6493 24.0917 41.852 24.017 42.092C23.9477 42.3267 23.913 42.5827 23.913 42.86C23.913 43.164 23.953 43.4333 24.033 43.668C24.1183 43.8973 24.233 44.092 24.377 44.252C24.5263 44.412 24.6997 44.5347 24.897 44.62C25.0997 44.7 25.3157 44.74 25.545 44.74C25.769 44.74 25.9637 44.7213 26.129 44.684C26.2997 44.6413 26.465 44.5507 26.625 44.412C26.7103 44.3533 26.7957 44.308 26.881 44.276ZM36.9476 43.5L36.3876 41.948C36.3343 41.8253 36.2783 41.6893 36.2196 41.54C36.1663 41.3853 36.1183 41.2307 36.0756 41.076C36.033 41.236 35.985 41.3907 35.9316 41.54C35.8783 41.6893 35.825 41.8253 35.7716 41.948L35.2116 43.5H36.9476ZM38.6836 45.5H37.9156C37.825 45.5 37.745 45.4573 37.6756 45.372C37.6063 45.2867 37.5583 45.2013 37.5316 45.116L37.1876 44.172H34.9796L34.6436 45.116C34.6063 45.196 34.553 45.2813 34.4836 45.372C34.4143 45.4573 34.3343 45.5 34.2436 45.5H33.4756L35.5796 40.188H36.5796L38.6836 45.5ZM49.9686 42.844C49.9686 43.2333 49.9046 43.5907 49.7766 43.916C49.6486 44.2413 49.4646 44.5213 49.2246 44.756C48.99 44.9907 48.7046 45.1747 48.3686 45.308C48.038 45.436 47.67 45.5 47.2646 45.5H45.2326V40.188H47.2646C47.67 40.188 48.038 40.2547 48.3686 40.388C48.7046 40.516 48.99 40.6973 49.2246 40.932C49.4646 41.1613 49.6486 41.4413 49.7766 41.772C49.9046 42.0973 49.9686 42.4547 49.9686 42.844ZM48.9606 42.844C48.9606 42.2467 48.8086 41.7827 48.5046 41.452C48.206 41.116 47.7926 40.948 47.2646 40.948H46.2246V44.74H47.1846C47.4406 44.74 47.6753 44.7053 47.8886 44.636C48.1073 44.5613 48.294 44.4467 48.4486 44.292C48.6086 44.1373 48.734 43.94 48.8246 43.7C48.9153 43.46 48.9606 43.1747 48.9606 42.844ZM57.8418 40.948V42.46H59.7218V43.196H57.8418V44.74H60.2178V45.5H56.8498V40.188H60.2178V40.948H57.8418ZM72.8448 40.188V45.5H71.9808V42.004C71.9808 41.9507 71.9808 41.892 71.9808 41.828C71.9861 41.7587 71.9914 41.6867 71.9968 41.612L70.3808 44.636C70.3008 44.7747 70.1861 44.844 70.0368 44.844H69.8928C69.7434 44.844 69.6261 44.7747 69.5408 44.636L67.9088 41.604C67.9194 41.6787 67.9248 41.7507 67.9248 41.82C67.9301 41.8893 67.9328 41.9507 67.9328 42.004V45.5H67.0608V40.188H67.8048C67.8954 40.188 67.9621 40.196 68.0048 40.212C68.0528 40.2227 68.0954 40.2653 68.1328 40.34L69.7408 43.332C69.7834 43.4067 69.8208 43.4867 69.8528 43.572C69.8901 43.652 69.9274 43.7347 69.9648 43.82C70.0021 43.7293 70.0368 43.644 70.0688 43.564C70.1061 43.4787 70.1461 43.3987 70.1888 43.324L71.7648 40.34C71.8074 40.2653 71.8528 40.2227 71.9008 40.212C71.9488 40.196 72.0154 40.188 72.1008 40.188H72.8448ZM82.3175 43.428V45.5H81.3335V43.428L79.3895 40.188H80.2535C80.3442 40.188 80.4135 40.2093 80.4615 40.252C80.5095 40.2893 80.5495 40.3373 80.5815 40.396L81.5655 42.212C81.6242 42.308 81.6748 42.404 81.7175 42.5C81.7655 42.5907 81.8055 42.6787 81.8375 42.764C81.9015 42.5773 81.9868 42.3933 82.0935 42.212L83.0615 40.396C83.0882 40.3427 83.1282 40.2947 83.1815 40.252C83.2348 40.2093 83.3042 40.188 83.3895 40.188H84.2695L82.3175 43.428Z" fill="#536B88"/>
</svg>
