<svg width="98" height="24" viewBox="0 0 98 24" fill="none" xmlns="http://www.w3.org/2000/svg">            <path d="M19.2952 0.0449219V3.43122L18.1742 4.54459L14.7627 7.93302L13.057 6.2388L11.3534 4.54672L14.7649 1.15829L15.8858 0.0449219H19.2952ZM11.3516 7.93302L9.64796 6.24093L7.9422 4.54672L4.53033 1.15829L3.40937 0.0449219H0V3.43335L1.12096 4.54494L4.53033 7.93337L6.23609 9.62759L4.53033 11.3218L1.12096 14.7102L0 15.8211V19.2095H3.40937L4.53033 18.0962L7.94184 14.7077L9.6476 13.0135L11.3512 11.3214L13.057 9.62723L11.3512 7.93302H11.3516ZM14.7631 11.3214L13.0573 13.0157L11.3537 14.7077L14.7652 18.0962L15.8862 19.2095H19.2956V15.8232L18.1746 14.7099L14.7631 11.3214Z" fill="white"></path>            <path d="M43.4097 0.0449219V4.8359H28.9385V24.0005H24.1149V0.0449219H43.4101H43.4097ZM38.5861 14.4182H28.9385L33.7621 19.2092H43.4097V4.83625L38.5861 9.62723V14.4182Z" fill="white"></path>            <path d="M67.5286 0.0449219V19.2095H62.705V4.83625H53.0574V14.4186H62.705L57.8814 19.2095H48.2338V0.0449219H67.529H67.5286Z" fill="white"></path>            <path d="M84.985 14.4173H79.592L72.3566 0.0440517H77.7496L80.1614 4.83503L82.0042 8.49558L82.5732 9.62636L84.985 14.4173ZM92.2419 0L92.2244 0.0362361L91.6435 1.18797L89.8126 4.82721L87.4008 9.61819L86.8199 10.7699L84.989 14.4092L82.5772 19.2001L81.9963 20.3519L80.1654 23.9911H85.5584L86.8203 21.4827L87.9702 19.2001L90.382 14.4092L91.6439 11.9007L92.7938 9.61819L95.2057 4.82721L96.4675 2.31875L97.6175 0.0362361L97.635 0L92.2419 0Z" fill="white"></path>            </svg>